<mxfile host="app.diagrams.net" modified="2022-05-28T23:22:28.782Z" agent="5.0 (Windows NT 10.0; Win64; x64) AppleWebKit/537.36 (KHTML, like Gecko) Chrome/104.0.5083.0 Safari/537.36" etag="ltQVvcpHufANkbhdAoUP" version="18.1.3" type="github">
  <diagram name="Page-1" id="5f0bae14-7c28-e335-631c-24af17079c00">
    <mxGraphModel dx="2942" dy="1132" grid="1" gridSize="10" guides="1" tooltips="1" connect="1" arrows="1" fold="1" page="1" pageScale="1" pageWidth="1100" pageHeight="850" background="none" math="0" shadow="0">
      <root>
        <mxCell id="0" />
        <mxCell id="1" parent="0" />
        <mxCell id="OK70Fjh14sik2sPedWaG-6" value="" style="group" vertex="1" connectable="0" parent="1">
          <mxGeometry x="295" y="100" width="510" height="510" as="geometry" />
        </mxCell>
        <mxCell id="OK70Fjh14sik2sPedWaG-1" value="" style="aspect=fixed;perimeter=ellipsePerimeter;html=1;align=center;shadow=0;dashed=0;spacingTop=3;image;image=img/lib/active_directory/database_partition_3.svg;" vertex="1" parent="OK70Fjh14sik2sPedWaG-6">
          <mxGeometry x="44" y="109" width="170" height="125.8" as="geometry" />
        </mxCell>
        <mxCell id="OK70Fjh14sik2sPedWaG-2" value="" style="dashed=0;outlineConnect=0;html=1;align=center;labelPosition=center;verticalLabelPosition=bottom;verticalAlign=top;shape=mxgraph.webicons.java;gradientColor=#DFDEDE" vertex="1" parent="OK70Fjh14sik2sPedWaG-6">
          <mxGeometry x="320" y="109" width="102.4" height="102.4" as="geometry" />
        </mxCell>
        <mxCell id="OK70Fjh14sik2sPedWaG-3" value="" style="sketch=0;aspect=fixed;html=1;points=[];align=center;image;fontSize=12;image=img/lib/mscae/Docker.svg;" vertex="1" parent="OK70Fjh14sik2sPedWaG-6">
          <mxGeometry x="70" y="151" width="378.05" height="310" as="geometry" />
        </mxCell>
        <mxCell id="OK70Fjh14sik2sPedWaG-4" value="" style="whiteSpace=wrap;html=1;aspect=fixed;fillColor=none;" vertex="1" parent="OK70Fjh14sik2sPedWaG-6">
          <mxGeometry width="510" height="510" as="geometry" />
        </mxCell>
        <mxCell id="OK70Fjh14sik2sPedWaG-5" value="&lt;b&gt;&lt;font style=&quot;font-size: 24px;&quot;&gt;Place for collected data&lt;/font&gt;&lt;/b&gt;" style="rounded=1;whiteSpace=wrap;html=1;strokeWidth=2;fillWeight=4;hachureGap=8;hachureAngle=45;fillColor=#dae8fc;sketch=1;strokeColor=#6c8ebf;" vertex="1" parent="OK70Fjh14sik2sPedWaG-6">
          <mxGeometry x="44" y="10" width="446" height="60" as="geometry" />
        </mxCell>
      </root>
    </mxGraphModel>
  </diagram>
</mxfile>
